<?xml version="1.0" standalone="no"?>
<!DOCTYPE svg PUBLIC "-//W3C//DTD SVG 20010904//EN"
 "http://www.w3.org/TR/2001/REC-SVG-20010904/DTD/svg10.dtd">
<svg version="1.0" xmlns="http://www.w3.org/2000/svg"
 width="512.000000pt" height="438.000000pt" viewBox="0 0 512.000000 438.000000"
 preserveAspectRatio="xMidYMid meet">
<metadata>
Created by potrace 1.16, written by Peter Selinger 2001-2019
</metadata>
<g transform="translate(0.000000,438.000000) scale(0.100000,-0.100000)"
fill="#000000" stroke="none">
<path d="M2500 3562 c0 -10 -10 -45 -23 -78 -66 -166 -124 -253 -212 -314
l-40 -28 3 72 c3 59 -1 79 -20 115 -43 82 -46 82 -196 -17 -128 -85 -132 -88
-132 -123 0 -21 8 -47 20 -61 l19 -25 -57 -12 c-85 -17 -185 -69 -290 -151
-51 -40 -91 -74 -89 -76 2 -2 30 7 62 21 81 32 205 48 273 35 66 -12 103 -31
136 -70 22 -27 26 -41 26 -95 0 -99 -36 -215 -106 -344 -79 -144 -164 -231
-465 -474 -31 -25 -32 -27 -9 -22 14 4 108 47 209 97 133 66 206 109 263 155
43 34 83 63 89 63 15 0 1 -63 -34 -155 -47 -125 -92 -202 -189 -329 -38 -49
-66 -91 -64 -94 8 -7 132 85 203 151 136 127 270 321 339 490 49 122 82 277
95 456 12 151 13 156 44 197 62 81 136 305 149 449 3 33 8 88 11 123 4 40 2
62 -5 62 -5 0 -10 -8 -10 -18z"/>
<path d="M2605 3513 c11 -132 16 -169 36 -253 37 -155 68 -232 124 -311 32
-44 33 -51 44 -196 24 -306 81 -480 231 -703 66 -97 153 -198 225 -263 57 -50
164 -127 177 -127 5 0 -24 44 -65 98 -114 148 -195 313 -222 450 -6 31 -5 33
12 24 10 -6 49 -35 86 -65 90 -72 489 -276 486 -249 0 4 -52 48 -116 97 -147
115 -269 233 -322 312 -99 149 -161 313 -161 428 0 81 22 115 96 150 54 25 65
27 149 23 59 -4 116 -14 165 -31 41 -14 76 -24 78 -22 7 6 -166 139 -212 162
-64 33 -152 63 -183 63 -27 0 -28 6 -8 40 8 14 14 40 15 57 0 31 -8 38 -122
114 -67 45 -129 84 -138 86 -10 3 -29 -10 -48 -31 -34 -39 -48 -98 -39 -172 2
-24 2 -44 0 -44 -17 0 -100 72 -133 115 -44 57 -112 196 -132 268 -18 68 -29
58 -23 -20z"/>
<path d="M0 875 l0 -365 50 0 50 0 0 365 0 365 -50 0 -50 0 0 -365z"/>
<path d="M250 875 l0 -365 45 0 45 0 2 290 3 289 184 -289 185 -290 53 0 53 0
0 365 0 365 -45 0 -45 0 0 -292 0 -291 -111 174 c-61 96 -145 227 -187 292
l-75 117 -54 0 -53 0 0 -365z"/>
<path d="M920 1195 l0 -45 120 0 120 0 0 -320 0 -320 50 0 50 0 0 320 0 320
120 0 120 0 0 45 0 45 -290 0 -290 0 0 -45z"/>
<path d="M1600 875 l0 -365 260 0 260 0 0 45 0 45 -210 0 -210 0 0 120 0 120
195 0 195 0 0 45 0 45 -195 0 -195 0 0 110 0 110 200 0 200 0 0 45 0 45 -250
0 -250 0 0 -365z"/>
<path d="M2220 876 l0 -366 50 0 50 0 0 155 0 155 141 0 c77 0 149 -5 159 -10
33 -18 43 -51 50 -166 4 -61 10 -116 14 -122 9 -15 126 -16 126 -2 0 6 -10 24
-22 40 -17 24 -22 49 -27 132 -7 113 -16 138 -60 164 l-29 17 37 28 c98 71 92
238 -12 307 -40 27 -41 27 -259 30 l-218 3 0 -365z m419 250 c32 -29 45 -84
32 -134 -18 -64 -47 -75 -213 -80 l-138 -4 0 122 0 121 149 -3 c130 -3 152 -5
170 -22z"/>
<path d="M2920 875 l0 -365 50 0 50 0 2 283 3 282 159 -250 c212 -334 196
-315 257 -315 l49 0 0 365 0 365 -45 0 -45 0 0 -292 0 -291 -111 174 c-61 96
-145 227 -186 292 l-74 117 -55 0 -54 0 0 -365z"/>
<path d="M3660 875 l0 -365 50 0 50 0 0 365 0 365 -50 0 -50 0 0 -365z"/>
<path d="M3870 1195 l0 -45 115 0 115 0 0 -320 0 -320 50 0 50 0 0 320 0 320
120 0 120 0 0 45 0 45 -285 0 -285 0 0 -45z"/>
<path d="M4480 1236 c0 -3 41 -69 91 -148 51 -79 110 -172 133 -208 l41 -65 5
-150 5 -150 48 -3 47 -3 0 142 0 142 133 215 c72 119 134 219 135 224 2 4 -23
8 -55 8 -57 0 -58 -1 -79 -38 -47 -85 -176 -302 -179 -302 -1 0 -49 77 -105
170 l-102 170 -59 0 c-32 0 -59 -2 -59 -4z"/>
</g>
</svg>
